<svg xmlns="http://www.w3.org/2000/svg" fill="none" viewBox="0 0 167 34">
  <g clip-path="url(#whitebird_clip)">
    <path fill="#fff" d="M155.514 8.215c3.232.207 6.292 2.09 6.292 2.09-5.699-5.96-15.132-7.643-19.489-.688 0 0-3.452.758-6.063 3.216 13.422 1.539 5.112 11.498 11.492 20.388h2.166a9.706 9.706 0 0 1-1.239-5.129c.19-5.14 4.461-9.315 9.618-9.407a9.811 9.811 0 0 1 8.708 4.94v-3.246c-3.596-9.82-11.485-12.164-11.485-12.164Z"/>
    <path fill="#0069FF" d="M149.256 9.513c.069.184.115.379.115.586 0 .901-.732 1.63-1.637 1.63a1.632 1.632 0 0 1-1.521-2.233c-.438.097-.83.24-1.141.436-.011.138-.011.281.012.425.207 1.401 1.556 2.458 3.013 2.338 1.459-.127 2.738-1.218 2.859-2.418a1.124 1.124 0 0 0 0-.201c-.461-.236-1.043-.431-1.7-.563Z"/>
    <path fill="#0069FF" d="M136.254 12.833c3.101.356 5.037 1.16 6.27 2.297.761-.38 1.614-.965 2.023-1.482-1.781-1.774-2.23-4.032-2.23-4.032-.006 0-3.452.753-6.063 3.217Z" opacity="0.35"/>
    <path fill="#0069FF" d="M149.907 33.221a9.706 9.706 0 0 1-1.239-5.128c.098-2.7 1.325-5.135 3.216-6.846-1.136-5.072-7.463-9.614-15.635-8.414 13.422 1.54 5.112 11.498 11.491 20.388h2.167Z" opacity="0.35"/>
    <path fill="#2A82FF" d="M167 30.62a2.622 2.622 0 0 1-2.617 2.607h-14.476a9.707 9.707 0 0 1-1.239-5.129c.19-5.14 4.461-9.315 9.618-9.407a9.808 9.808 0 0 1 8.707 4.939v6.99H167Zm-30.745-17.787c2.61-2.464 6.062-3.216 6.062-3.216 4.357-6.955 13.79-5.273 19.49.689 0 0-3.06-1.878-6.293-2.09 0 0 7.889 2.343 11.486 12.17V3.27a2.622 2.622 0 0 0-2.617-2.607h-27.442a2.62 2.62 0 0 0-2.616 2.607v27.35a2.62 2.62 0 0 0 2.616 2.607h10.805c-6.379-8.896 1.931-18.855-11.491-20.394Z"/>
    <path fill="#000" d="M104.19 18.128c.767-.236 1.383-.632 1.85-1.189.467-.551.703-1.263.703-2.136 0-1.086-.398-1.919-1.192-2.499-.796-.58-1.891-.873-3.297-.873h-5.14v11.022h2.518v-4.084h2.104l3.169 4.084h2.755l-3.47-4.325Zm-2.933-.523h-1.625v-5.421h1.614c1.93 0 2.899.913 2.899 2.734-.007 1.786-.969 2.687-2.888 2.687ZM3.803 22.453 0 11.432h2.605l3.146 9.545 3.383-9.545h2.328l3.446 9.527 3.06-9.527h1.193l-3.723 11.02h-2.391l-3.446-9.39-3.4 9.39H3.803ZM23.235 22.453V11.432h2.518v4.95h5.7v-4.95h2.518v11.02h-2.518v-5.289h-5.7v5.29h-2.518ZM39.71 22.453V11.432h2.52v11.02h-2.52ZM50.056 22.453V12.247H46.12v-.816h10.407v.816h-3.953v10.206h-2.518ZM60.395 22.453V11.432h8.345v.815h-5.827v4.135h5.337v.781h-5.337v4.474h6.293v.816h-8.811ZM73.804 11.431h5.29c1.39 0 2.461.253 3.222.753.76.505 1.135 1.166 1.135 1.993 0 .608-.19 1.12-.576 1.527a4.05 4.05 0 0 1-1.424.965c.825.178 1.47.5 1.948.948.473.454.715 1.022.715 1.711 0 .994-.415 1.764-1.245 2.303-.83.54-2.08.816-3.751.816h-5.314V11.432Zm5.025 4.986c.3 0 .611-.07.946-.201.334-.138.622-.362.858-.684.236-.322.363-.74.363-1.263 0-.69-.265-1.206-.79-1.563-.524-.35-1.221-.522-2.085-.522h-1.81v4.238h2.518v-.006Zm-.68 5.289c2.311 0 3.47-.81 3.47-2.424 0-.723-.248-1.263-.744-1.625-.496-.362-1.147-.54-1.96-.54h-2.593v4.595h1.827v-.006ZM88.85 22.453V11.432h2.518v11.02H88.85ZM122.309 12.867c-1.101-.953-2.639-1.43-4.628-1.43h-5.584v11.021h5.584c2.011 0 3.561-.47 4.645-1.407 1.084-.936 1.625-2.291 1.625-4.066.005-1.792-.548-3.165-1.642-4.118Zm-5.509 8.77h-2.184v-9.39h2.16c3.02 0 4.53 1.58 4.53 4.732 0 3.107-1.498 4.658-4.506 4.658Z"/>
  </g>
  <defs>
    <clipPath id="whitebird_clip">
      <path fill="#fff" d="M0 .663h167v32.674H0z"/>
    </clipPath>
  </defs>
</svg>
